<?xml version="1.0" standalone="no"?>
<!DOCTYPE svg PUBLIC "-//W3C//DTD SVG 20010904//EN"
 "http://www.w3.org/TR/2001/REC-SVG-20010904/DTD/svg10.dtd">
<svg version="1.0" xmlns="http://www.w3.org/2000/svg"
 width="640.000000pt" height="1280.000000pt" viewBox="0 0 640.000000 1280.000000"
 preserveAspectRatio="xMidYMid meet">
<metadata>
Created by potrace 1.15, written by Peter Selinger 2001-2017
</metadata>
<g transform="translate(0.000000,1280.000000) scale(0.100000,-0.100000)"
fill="#000000" stroke="none">
<path d="M4630 12743 c-34 -39 -74 -104 -120 -198 -82 -166 -263 -624 -365
-925 -83 -245 -104 -300 -115 -300 -22 0 -29 364 -11 575 17 195 14 295 -9
295 -17 0 -98 -136 -114 -189 -43 -147 -66 -388 -66 -696 0 -110 5 -240 12
-290 6 -49 11 -124 11 -165 -1 -86 -29 -176 -203 -655 -55 -154 -128 -368
-161 -475 -33 -107 -62 -196 -64 -199 -8 -8 -4 928 4 1064 6 102 13 139 29
170 33 61 41 151 53 534 12 440 -1 975 -26 1061 -31 101 -46 139 -72 177 -20
29 -29 61 -40 142 -7 56 -16 107 -19 112 -18 29 -35 -10 -54 -125 -12 -76 -31
-120 -54 -129 -8 -3 -14 -14 -14 -24 2 -22 -30 -197 -43 -238 -5 -16 -14 -118
-19 -225 -12 -237 -19 -323 -32 -374 -7 -31 -6 -42 5 -54 11 -10 13 -22 8 -36
-27 -71 -18 -324 13 -384 13 -26 13 -32 1 -42 -20 -17 -9 -111 16 -129 22 -15
25 -47 7 -54 -18 -6 28 -141 64 -189 15 -20 33 -50 39 -65 6 -15 15 -127 19
-248 10 -238 13 -1032 5 -1023 -9 8 -49 154 -140 508 -163 633 -285 1076 -372
1353 l-46 149 92 287 c166 521 213 767 149 779 -21 4 -40 -37 -183 -398 -64
-162 -126 -312 -138 -332 -35 -64 -51 -51 -108 87 -93 226 -303 583 -458 778
-64 80 -107 112 -131 97 -23 -15 -1 -77 131 -363 295 -636 398 -879 406 -962
5 -43 -3 -76 -45 -206 -102 -310 -164 -615 -287 -1392 -30 -187 -55 -341 -58
-343 -2 -2 -11 58 -20 133 -18 145 -21 296 -8 375 5 31 3 60 -4 82 -10 30 -10
38 2 48 8 7 12 20 9 32 -4 12 -15 93 -26 181 -41 320 -71 519 -85 552 -8 19
-19 74 -25 121 -12 102 -36 192 -51 192 -6 0 -8 8 -5 18 9 28 -31 173 -54 194
-11 10 -20 29 -20 42 0 24 -16 42 -54 61 -18 9 -22 22 -27 91 -7 90 -12 104
-39 104 -26 0 -30 -20 -19 -96 9 -64 8 -69 -17 -105 -25 -37 -43 -92 -44 -137
0 -15 11 -29 33 -42 l32 -20 -31 0 c-16 0 -35 5 -41 11 -15 15 -25 -45 -17
-113 4 -39 11 -58 20 -58 21 0 17 -23 -6 -38 -16 -9 -20 -23 -20 -62 0 -44 3
-52 26 -62 25 -12 25 -12 5 -20 -17 -6 -21 -16 -21 -55 1 -83 17 -195 30 -203
6 -4 10 -16 9 -26 -5 -27 9 -44 33 -44 21 0 20 -2 -7 -30 -23 -24 -26 -32 -16
-44 7 -8 11 -29 9 -47 -2 -26 2 -35 19 -44 15 -8 19 -15 13 -21 -7 -7 -6 -21
1 -42 8 -23 8 -36 0 -45 -8 -10 -7 -29 4 -68 8 -30 17 -71 20 -91 4 -23 15
-45 31 -57 14 -11 23 -25 19 -31 -3 -5 1 -25 11 -42 30 -59 34 -68 34 -82 0
-7 9 -25 20 -39 11 -14 20 -31 20 -39 1 -7 18 -25 40 -40 43 -30 51 -49 75
-188 18 -99 45 -321 45 -367 0 -18 -3 -33 -7 -33 -5 1 -42 47 -83 103 -235
318 -616 775 -799 957 -196 195 -321 274 -360 226 -18 -21 4 -54 134 -201 175
-199 512 -637 665 -865 76 -113 203 -330 408 -695 124 -222 154 -282 166 -340
21 -102 26 -148 18 -163 -12 -19 -38 15 -143 183 -139 226 -370 575 -464 701
-245 330 -758 895 -928 1023 -76 58 -396 191 -457 191 -60 0 -19 -48 133 -157
221 -159 323 -258 567 -552 201 -242 288 -359 374 -499 109 -179 176 -270 362
-494 258 -311 329 -408 413 -573 112 -217 166 -427 246 -946 61 -400 81 -539
80 -539 -4 0 -79 116 -133 204 -120 198 -292 579 -433 958 -39 106 -95 243
-124 303 -101 208 -364 638 -507 828 -106 139 -288 332 -357 376 -91 59 -231
92 -231 55 0 -25 17 -51 130 -199 204 -268 292 -407 455 -715 60 -113 152
-282 206 -376 132 -232 177 -329 281 -614 137 -376 275 -647 452 -888 100
-138 232 -399 310 -617 111 -311 304 -1083 437 -1751 12 -61 12 -62 -36 -203
-27 -77 -52 -147 -57 -154 -17 -26 -20 -15 -207 603 -132 438 -197 631 -388
1150 -181 494 -256 683 -348 882 -107 231 -256 471 -328 528 l-26 21 -21 -21
c-17 -17 -19 -28 -14 -58 11 -66 41 -143 122 -322 98 -216 159 -380 300 -810
157 -476 197 -602 322 -1017 61 -202 142 -465 180 -583 96 -300 212 -714 254
-903 7 -29 -11 -10 -44 51 -18 31 -170 291 -338 577 -332 564 -335 571 -543
1005 -169 353 -245 528 -329 755 -34 94 -69 183 -77 198 -18 36 -57 55 -77 38
-22 -19 -29 -109 -17 -204 13 -96 123 -516 169 -649 84 -236 225 -533 402
-843 180 -315 547 -1037 700 -1375 97 -214 176 -444 268 -775 151 -540 220
-778 303 -1040 115 -365 129 -415 120 -415 -15 0 -467 440 -588 572 -160 174
-231 264 -387 488 -71 102 -155 217 -187 256 -135 165 -337 323 -470 366 -78
25 -99 20 -99 -21 0 -36 24 -68 210 -282 225 -259 348 -433 447 -632 129 -260
347 -502 573 -636 67 -40 278 -215 304 -253 22 -31 12 -38 -55 -38 -74 0 -95
10 -103 51 -8 39 -30 33 -34 -10 -4 -35 -29 -52 -43 -30 -5 8 -9 49 -9 92 0
42 -4 77 -8 77 -4 0 -16 -24 -26 -53 -25 -69 -33 -76 -47 -41 l-11 29 -14 -35
c-25 -62 -39 -85 -57 -88 -14 -3 -17 5 -17 53 0 47 -2 55 -13 46 -8 -6 -19
-30 -26 -53 -7 -24 -18 -49 -23 -55 -15 -18 -35 -16 -40 4 -4 17 20 206 37
298 l8 40 -23 -20 c-32 -29 -43 -55 -42 -97 1 -21 -3 -38 -8 -38 -6 0 -10 -34
-10 -80 0 -73 -2 -81 -25 -96 -17 -11 -34 -14 -57 -9 -54 12 -58 20 -58 114 0
89 -7 131 -20 131 -14 0 -21 -32 -27 -129 -3 -53 -9 -105 -13 -116 -7 -18 -9
-18 -19 8 -6 16 -11 48 -11 73 0 79 -46 269 -72 298 -14 17 -9 -26 17 -124 19
-73 25 -121 25 -207 0 -115 7 -136 37 -111 24 19 507 25 554 6 26 -11 65 -12
169 -7 328 18 1010 40 1065 34 104 -10 158 -37 103 -50 -13 -3 -369 -10 -793
-16 -789 -11 -936 -17 -900 -33 46 -20 958 -18 1615 3 676 22 873 31 866 39
-3 2 -77 7 -165 11 -88 3 -162 9 -166 12 -3 4 6 61 21 128 14 66 24 127 21
134 -6 17 -57 -147 -64 -205 -3 -27 -11 -53 -18 -58 -8 -6 -44 -10 -81 -8 -77
3 -88 15 -54 58 20 24 21 25 35 6 9 -12 18 -16 24 -10 10 11 61 211 61 239 0
27 -15 7 -30 -40 -7 -22 -26 -67 -42 -99 l-30 -59 -38 44 c-21 24 -40 42 -42
39 -11 -14 -38 -83 -38 -96 0 -8 7 -17 15 -20 22 -9 18 -51 -7 -68 -30 -21
-118 -22 -118 -1 0 8 6 15 14 15 7 0 23 21 34 47 30 72 114 334 109 340 -8 7
-26 -31 -57 -116 l-28 -75 -12 59 c-7 33 -13 95 -13 138 0 67 -2 76 -14 65
-13 -10 -14 -32 -8 -130 7 -115 1 -178 -15 -178 -4 0 -12 17 -17 37 l-10 38
-7 -55 c-17 -118 -52 -119 -41 -1 36 417 99 721 270 1301 194 661 363 1075
559 1370 77 115 112 159 292 367 35 39 70 86 80 105 9 18 58 94 109 168 204
299 333 558 503 1011 163 432 252 747 252 894 0 47 -28 109 -52 113 -23 4 -44
-39 -112 -234 -98 -283 -294 -731 -448 -1024 -112 -213 -347 -557 -567 -830
-199 -247 -361 -470 -394 -540 -16 -36 -70 -162 -119 -280 -130 -313 -169
-400 -180 -400 -6 0 -7 31 -4 83 38 508 85 1036 111 1268 18 154 25 178 177
583 66 176 157 427 203 556 46 129 115 325 155 435 40 110 96 270 125 355 133
389 260 690 366 868 196 326 484 752 656 967 165 207 220 291 206 313 -15 25
-66 26 -110 4 -77 -40 -212 -180 -519 -538 -122 -142 -339 -435 -396 -534 -44
-77 -223 -439 -276 -560 -144 -327 -363 -924 -457 -1246 -64 -221 -102 -336
-129 -398 -28 -62 -51 -85 -42 -40 3 16 12 196 21 399 8 204 24 498 35 655 18
263 29 479 46 929 l6 174 221 311 c392 551 398 562 762 1461 351 865 448 1067
647 1347 38 54 67 102 63 108 -10 15 -83 12 -121 -6 -38 -18 -189 -169 -260
-259 -194 -248 -362 -577 -549 -1075 -138 -368 -273 -656 -412 -878 -82 -132
-194 -292 -204 -292 -12 0 14 98 105 390 109 352 197 611 242 714 20 45 60
149 89 231 29 83 76 204 105 270 28 66 81 201 116 299 183 508 360 838 601
1118 189 221 367 466 357 493 -7 18 -78 21 -119 5 -103 -39 -452 -386 -620
-615 -32 -44 -76 -100 -98 -125 -72 -83 -275 -524 -467 -1015 -77 -195 -291
-821 -353 -1032 -16 -51 -33 -93 -39 -93 -24 0 12 420 67 770 27 176 123 697
154 840 25 111 39 129 174 222 120 82 167 128 167 163 l0 28 -79 -6 c-43 -3
-81 -4 -83 -1 -3 2 5 48 18 102 13 53 41 178 63 277 22 99 49 216 60 260 40
155 82 541 85 780 1 125 0 132 -28 187 l-29 56 17 72 c21 93 20 102 -5 129
-30 32 -43 15 -68 -88 -13 -52 -31 -97 -46 -115 -80 -98 -165 -270 -165 -335
0 -16 -7 -31 -15 -35 -11 -4 -15 -20 -15 -55 0 -57 -7 -81 -25 -81 -8 0 -15
-23 -19 -62 -14 -118 -16 -111 34 -123 29 -7 46 -17 48 -28 4 -21 -38 -24 -68
-5 -15 10 -25 10 -38 2 -21 -14 -30 -49 -10 -42 9 4 6 -9 -10 -42 -13 -27 -26
-76 -29 -109 -5 -52 -3 -61 11 -61 24 0 19 -19 -8 -29 -28 -11 -36 -29 -36
-82 0 -22 -10 -81 -22 -131 -19 -82 -20 -92 -6 -102 14 -10 14 -14 3 -30 -35
-48 -24 -272 15 -308 44 -41 14 -86 -130 -191 -52 -38 -121 -94 -152 -125 -32
-31 -60 -54 -63 -51 -8 9 -20 82 -80 486 l-57 382 40 123 c55 167 94 300 132
443 72 275 170 596 311 1023 83 249 148 460 145 468 -12 32 -54 15 -106 -43z
m-60 -350 c-118 -342 -171 -484 -201 -532 -14 -23 -21 -54 -23 -100 -2 -71
-26 -131 -52 -131 -12 0 -13 -9 -8 -52 5 -36 4 -49 -4 -44 -20 12 -62 -99
-117 -309 -14 -55 -29 -109 -32 -120 -3 -13 -2 -17 5 -10 5 6 33 87 62 180 57
183 69 215 70 177 0 -33 -34 -164 -85 -327 -25 -77 -49 -164 -55 -194 -6 -30
-12 -56 -14 -59 -10 -10 -24 10 -36 52 -22 79 -15 111 114 525 42 135 76 250
75 255 -2 23 -31 -58 -104 -284 -87 -268 -94 -288 -107 -296 -16 -10 -1 45 89
320 157 478 359 1018 423 1126 39 66 90 133 97 126 3 -3 -41 -139 -97 -303z
m-2359 54 c138 -209 293 -519 365 -733 28 -85 28 -131 -2 -201 l-16 -38 -72
180 c-120 298 -151 367 -306 685 -82 168 -151 316 -155 330 -11 46 81 -65 186
-223z m779 -50 c0 -23 -77 -326 -114 -447 -19 -63 -62 -194 -95 -290 -80 -233
-184 -600 -215 -757 -14 -71 -36 -211 -51 -313 -15 -102 -42 -279 -60 -395
-19 -115 -45 -293 -60 -395 -33 -233 -85 -501 -96 -494 -5 3 -9 16 -9 30 0 13
-4 24 -9 24 -10 0 -15 -23 -42 -195 -22 -143 -35 -178 -25 -70 11 133 27 507
22 513 -3 3 -6 -3 -6 -14 0 -30 -29 -291 -41 -376 -14 -96 -30 -103 -23 -10
17 209 57 595 74 712 30 202 127 728 160 866 80 337 205 721 321 989 28 66 64
156 79 200 15 44 52 139 82 210 31 72 63 151 72 178 17 44 36 63 36 34z m364
-96 c-7 -7 -34 28 -34 43 1 6 10 0 21 -13 11 -13 17 -27 13 -30z m-31 -55 c3
-8 3 -17 0 -20 -7 -7 -33 13 -33 25 0 15 27 10 33 -5z m15 -58 c18 -18 14 -46
-8 -58 -25 -13 -25 -29 -3 -46 16 -11 16 -13 -9 -24 -58 -27 -75 17 -38 98 19
43 36 52 58 30z m648 -162 c-9 -38 -26 -291 -26 -401 0 -148 26 -356 161
-1280 86 -590 148 -1002 189 -1245 95 -570 94 -563 98 -795 4 -260 -3 -371
-23 -355 -11 9 -15 -1 -20 -52 -3 -35 -5 -99 -3 -143 l3 -80 33 62 c18 35 39
93 48 130 19 85 39 152 174 588 147 473 182 569 339 944 43 102 104 254 136
336 77 200 162 377 223 467 27 40 93 138 145 218 106 162 146 210 176 210 13
0 34 22 65 68 69 105 353 368 374 347 7 -6 -18 -33 -227 -248 -84 -87 -150
-161 -147 -165 4 -3 63 50 131 118 196 195 173 149 -65 -135 -143 -171 -180
-220 -240 -324 -121 -210 -297 -608 -375 -851 -10 -30 -42 -111 -72 -180 -31
-69 -79 -190 -108 -270 -29 -80 -78 -208 -108 -285 -163 -416 -346 -1004 -412
-1325 -18 -91 -43 -208 -54 -260 -29 -138 -39 -249 -61 -690 -11 -217 -26
-489 -34 -605 -22 -311 -35 -564 -46 -905 -12 -367 -23 -469 -58 -580 l-27
-85 -3 230 c-2 127 0 259 4 295 l7 65 14 -60 c16 -72 22 -89 28 -83 8 7 -34
271 -71 450 -35 174 -61 257 -182 583 -60 164 -137 388 -149 435 -4 12 -5 13
-13 0 -5 -8 -12 -12 -15 -8 -24 24 -250 629 -265 710 -6 27 -19 62 -29 77 -57
80 -389 1008 -531 1485 -162 543 -214 898 -215 1466 0 262 6 356 24 346 16
-10 41 -152 81 -471 41 -324 118 -715 207 -1050 58 -219 427 -1304 519 -1527
74 -180 116 -290 184 -483 35 -99 102 -286 150 -415 122 -329 175 -512 240
-817 21 -100 43 -190 49 -200 7 -13 10 31 11 157 0 96 7 279 15 405 31 495 39
864 40 1695 0 828 -1 848 -22 971 -12 69 -47 305 -77 525 -30 219 -67 471 -81
559 -14 88 -44 275 -65 415 -22 140 -55 354 -74 475 -86 538 -104 917 -61
1252 18 132 38 226 59 278 17 40 42 49 32 11z m-635 -37 c18 -57 4 -93 -38
-97 -57 -6 -69 64 -21 116 31 32 46 27 59 -19z m1669 -69 c0 -11 -4 -20 -10
-20 -5 0 -10 9 -10 20 0 11 5 20 10 20 6 0 10 -9 10 -20z m-1739 -56 c9 -12
24 -15 51 -11 44 6 46 2 16 -30 -26 -28 -44 -29 -58 -4 -5 11 -20 21 -32 23
-29 4 -38 38 -10 38 11 0 26 -7 33 -16z m87 -154 c7 -18 7 -32 1 -35 -17 -11
-29 6 -29 41 0 40 13 38 28 -6z m1572 10 c0 -5 -9 -10 -20 -10 -11 0 -20 5
-20 10 0 6 9 10 20 10 11 0 20 -4 20 -10z m-1636 -45 c-1 -16 -5 -52 -9 -78
-7 -42 -5 -50 14 -68 21 -19 27 -61 15 -93 -10 -26 -23 -18 -30 19 -7 41 -21
46 -30 11 -9 -36 13 -93 52 -136 29 -32 32 -39 19 -50 -10 -9 -13 -24 -8 -56
5 -42 5 -44 -21 -44 -34 0 -33 -13 2 -27 l27 -11 -27 -1 c-19 -1 -33 7 -44 24
-16 24 -16 27 1 45 18 20 17 21 -6 47 -13 14 -19 23 -12 19 14 -8 64 14 57 25
-3 5 -14 9 -25 9 -14 0 -19 7 -19 28 0 15 -9 41 -20 57 -26 39 -25 47 5 90 23
34 23 38 9 61 -10 15 -14 33 -10 50 6 23 4 25 -16 19 -21 -6 -22 -5 -5 8 10 8
28 12 44 9 l27 -5 -27 32 c-35 42 -34 53 6 49 29 -3 32 -6 31 -33z m1646 9 c0
-4 -8 -13 -17 -19 -17 -13 -17 -14 0 -33 18 -20 18 -20 -2 -27 -34 -11 -26
-64 12 -78 24 -9 22 -42 -4 -59 -19 -12 -20 -17 -10 -53 14 -52 8 -54 -20 -8
-23 37 -24 37 -27 13 -2 -14 -10 -29 -18 -33 -21 -12 -17 -26 11 -37 19 -7 25
-17 25 -39 0 -38 -16 -81 -37 -96 -23 -17 -9 -61 29 -97 35 -32 31 -48 -7 -28
-21 11 -29 11 -52 0 -25 -12 -26 -14 -8 -18 27 -6 35 -20 35 -68 0 -56 -23
-76 -53 -46 l-21 22 27 0 c29 0 33 6 17 30 -9 13 -13 12 -30 -9 -31 -36 -24
-91 11 -91 23 0 25 -13 4 -30 -20 -17 -19 -24 11 -59 14 -17 23 -35 19 -40 -9
-16 -96 -25 -117 -12 -10 6 -32 11 -49 11 -26 0 -29 2 -19 14 6 8 20 36 30 63
12 33 25 49 41 53 29 7 37 30 10 30 -11 0 -26 9 -33 20 -12 18 -13 18 -32 2
-18 -16 -18 -16 -8 4 6 12 24 24 41 27 33 7 84 67 56 67 -13 0 -14 4 -4 23 6
12 21 32 32 44 20 23 25 81 11 126 -8 25 -30 15 -26 -11 4 -28 -13 -28 -32 0
-21 30 -20 38 4 38 23 0 70 28 70 41 0 5 -8 9 -17 9 -14 0 -13 3 5 16 15 10
21 22 17 34 -3 11 5 44 19 75 16 33 30 88 35 134 5 44 12 84 15 90 8 12 56 16
56 5z m-2129 -594 c72 -237 195 -701 314 -1185 136 -548 174 -719 185 -835 13
-125 19 -150 35 -150 25 0 30 24 30 150 0 115 3 133 33 225 19 55 44 146 58
201 26 114 130 434 145 449 15 15 11 -13 -16 -104 -47 -159 -28 -133 43 59 68
182 75 200 84 200 7 0 2 -45 -8 -78 -2 -7 0 -11 5 -8 5 3 32 63 60 133 55 136
110 247 111 225 0 -15 -76 -220 -204 -545 -119 -304 -169 -463 -220 -700 -43
-198 -67 -269 -109 -314 -19 -21 -21 -21 -33 -5 -11 15 -14 12 -20 -25 -3 -24
-10 -43 -15 -43 -5 0 -9 3 -9 7 0 4 -30 141 -66 303 -70 314 -132 564 -245
985 -69 257 -189 727 -189 741 0 20 19 -17 35 -66 10 -30 21 -59 26 -64 11
-12 29 37 28 77 0 30 -1 30 -10 9 -13 -34 -24 -21 -55 65 -59 169 -86 233 -95
233 -6 0 -7 -9 -4 -20 3 -11 2 -20 -3 -20 -6 0 -13 12 -17 28 -15 58 2 292 18
252 3 -8 18 -55 32 -105 38 -129 106 -339 112 -345 9 -8 -7 57 -63 257 -29
105 -55 209 -59 230 l-5 38 21 -45 c11 -25 43 -119 70 -210z m-1071 28 c0 -12
-63 16 -68 30 -3 9 8 7 32 -5 20 -9 36 -20 36 -25z m1540 -18 c0 -12 -28 -25
-36 -17 -9 9 6 27 22 27 8 0 14 -5 14 -10z m-1540 -55 l0 -45 41 0 41 0 -22
-18 c-21 -17 -22 -21 -9 -55 12 -34 11 -38 -7 -52 -19 -16 -19 -16 0 -13 11 2
32 23 46 48 14 25 34 47 44 48 16 3 15 1 -3 -17 -12 -12 -21 -30 -21 -40 0
-11 -16 -40 -35 -65 -41 -54 -42 -60 -14 -51 20 7 21 5 16 -25 -7 -31 -6 -32
19 -26 21 6 25 4 22 -11 -2 -12 -14 -19 -36 -21 -21 -2 -32 -9 -32 -19 0 -9 6
-13 14 -10 19 8 66 -30 66 -52 0 -10 -11 -28 -25 -41 -14 -13 -25 -27 -25 -32
0 -17 38 -7 52 14 l15 22 12 -23 c12 -21 9 -27 -28 -65 l-41 -42 40 -23 40
-22 -20 -26 c-24 -30 -12 -54 22 -45 l22 5 -22 -35 c-12 -19 -22 -48 -22 -64
0 -35 -13 -22 -30 29 -13 42 -20 45 -45 17 -21 -23 -30 -19 -51 23 l-17 31 26
-17 c22 -14 27 -14 37 -2 16 20 5 45 -19 45 -41 0 -45 58 -7 89 21 18 20 31
-2 31 -10 0 -27 7 -39 15 -29 20 -20 49 13 41 35 -9 38 11 4 35 -23 18 -30 30
-30 57 0 22 -9 47 -25 68 -14 18 -25 37 -25 43 0 16 17 13 24 -4 8 -21 23 -18
29 6 12 46 -21 69 -60 43 -14 -8 -27 -14 -29 -11 -10 9 8 34 36 51 33 19 36
32 15 60 -10 14 -12 35 -8 82 l6 64 -27 0 c-14 0 -26 4 -26 9 0 17 43 41 72
41 26 0 28 -2 28 -45z m1550 -20 c-7 -8 -19 -15 -28 -15 -12 0 -10 6 9 26 24
26 41 16 19 -11z m1646 -63 c-18 -18 -31 -10 -23 12 4 10 13 13 22 9 15 -5 15
-7 1 -21z m-2222 -192 c77 -233 112 -357 215 -750 232 -888 277 -1104 269
-1294 -2 -56 -10 -111 -17 -124 -13 -24 -13 -24 -27 -4 -28 40 -130 425 -183
687 -39 194 -63 353 -101 650 -37 290 -48 350 -70 377 -37 46 -71 -7 -91 -144
-22 -152 0 -714 42 -1048 21 -173 132 -672 178 -804 12 -33 21 -68 21 -80 0
-11 -24 -61 -54 -111 -29 -49 -57 -101 -61 -115 -9 -31 -34 -60 -51 -60 -16 0
-51 56 -199 325 -70 127 -170 305 -221 396 l-95 166 11 84 c5 47 21 150 35
229 89 502 127 729 155 910 48 314 141 862 152 890 9 24 10 24 24 5 8 -10 39
-93 68 -185z m604 155 l4 -30 -26 24 c-32 30 -33 43 -3 39 16 -2 23 -11 25
-33z m-38 -45 c11 -22 17 -40 12 -40 -9 0 -42 53 -42 69 0 20 9 11 30 -29z
m-1390 -84 c0 -18 -17 -29 -30 -21 -8 5 -7 11 1 21 15 18 29 18 29 0z m2825
-63 c9 -12 24 -17 49 -15 39 4 51 -16 16 -25 -26 -7 -25 -15 1 -31 l21 -13
-21 -23 c-12 -12 -21 -32 -21 -43 0 -32 -10 -53 -26 -53 -7 0 -18 -9 -24 -19
-14 -26 -13 -34 4 -28 18 7 36 -12 36 -39 0 -28 -31 -84 -47 -84 -21 0 -43
-41 -33 -61 14 -26 12 -31 -11 -27 -33 5 -48 36 -26 52 29 22 21 39 -15 32
l-32 -6 34 36 c32 33 33 36 12 31 -23 -5 -23 -5 -6 20 15 24 15 27 0 35 -28
16 -20 55 14 67 35 12 38 26 10 41 -22 12 -28 45 -7 37 13 -5 87 32 87 43 0 4
-22 5 -50 2 -56 -5 -68 10 -20 27 26 9 30 14 24 36 -7 30 12 34 31 8z m-1347
-793 c0 -283 -3 -540 -8 -570 -4 -30 -7 256 -7 635 0 380 4 636 7 570 4 -66 7
-352 8 -635z m512 650 c0 -14 -171 -444 -212 -532 -17 -38 -34 -68 -39 -68
-10 0 75 224 208 548 23 55 43 80 43 52z m-2745 -304 c213 -213 331 -349 505
-581 255 -341 437 -624 655 -1020 76 -137 176 -315 223 -395 102 -174 236
-429 229 -436 -2 -3 -21 14 -41 37 -40 48 -45 45 -17 -9 10 -20 22 -52 26 -70
6 -28 4 -34 -14 -39 -16 -4 -21 -15 -23 -51 -2 -25 -7 -47 -13 -49 -16 -5 -75
96 -208 352 -135 262 -210 397 -415 755 -74 129 -151 267 -170 305 -44 88
-179 305 -342 550 -146 218 -149 223 -453 608 -125 158 -227 290 -227 292 0
19 134 -98 285 -249z m796 161 c-5 -5 -17 -4 -30 2 -24 13 -27 27 -8 34 17 6
50 -24 38 -36z m1954 21 c-14 -45 -58 -138 -71 -149 -8 -6 -14 -9 -14 -7 0 12
39 118 54 146 19 37 41 43 31 10z m-3479 -174 c101 -41 120 -54 215 -138 233
-208 649 -652 844 -901 162 -207 705 -1065 705 -1113 0 -7 -5 -12 -10 -12 -11
0 -27 25 -159 246 -100 168 -245 389 -261 399 -16 10 -27 29 130 -225 70 -113
165 -268 211 -344 46 -77 100 -156 120 -175 20 -20 44 -49 54 -64 10 -15 19
-26 21 -25 1 2 -11 57 -27 123 -23 94 -29 141 -28 220 l1 100 34 -71 c30 -62
37 -91 50 -205 8 -74 37 -303 64 -509 48 -368 68 -540 91 -790 13 -137 24
-186 39 -160 14 26 39 187 46 300 4 58 11 108 16 111 8 5 40 125 52 199 9 48
-8 27 -30 -40 -29 -89 -28 -29 1 71 38 129 82 230 109 254 16 13 27 39 34 77
10 51 83 226 130 309 11 19 36 65 57 102 20 38 39 67 41 64 2 -2 -16 -48 -41
-101 -26 -54 -44 -103 -42 -109 2 -6 30 32 62 83 32 51 61 88 63 82 2 -7 -22
-71 -54 -144 -31 -73 -63 -149 -71 -168 -26 -65 13 -4 79 122 61 119 88 156
88 124 0 -9 -7 -30 -16 -47 -9 -18 -12 -39 -8 -52 6 -19 5 -20 -10 -8 -14 12
-16 11 -16 -9 0 -12 -10 -35 -23 -50 -13 -15 -31 -54 -41 -86 -19 -63 -64
-200 -151 -456 -60 -173 -103 -342 -136 -523 -17 -91 -22 -160 -22 -285 -1
-199 18 -322 132 -880 22 -107 65 -346 96 -530 30 -184 69 -407 86 -495 17
-88 29 -176 26 -197 -6 -46 -66 -137 -77 -117 -23 42 -125 539 -145 704 -20
165 -51 293 -78 323 -16 18 -22 39 -25 92 -2 39 -8 70 -12 70 -19 0 -131 372
-117 386 2 2 12 -14 22 -36 35 -77 38 -31 4 52 -6 15 -19 30 -29 33 -18 6 -49
67 -93 185 -57 151 -122 277 -274 527 -46 75 -80 142 -80 157 0 31 -18 55 -50
67 -17 6 -23 16 -23 39 0 27 -3 30 -21 25 -16 -5 -20 -3 -17 6 7 19 -20 94
-85 235 -65 140 -121 280 -170 420 -53 150 -97 258 -110 269 -7 6 -13 29 -13
51 -2 44 -28 94 -49 94 -29 0 -95 108 -285 465 -203 381 -282 507 -455 729
-116 151 -140 184 -132 192 9 10 94 -33 164 -83 104 -73 197 -174 318 -343
133 -187 272 -411 285 -459 5 -20 18 -41 29 -48 45 -28 184 -321 311 -653 167
-440 290 -703 463 -991 149 -250 278 -496 331 -634 52 -134 62 -153 72 -142
18 18 -54 277 -86 312 -10 11 -24 39 -31 62 -7 25 -20 45 -30 48 -22 7 -32 35
-35 100 -1 28 -9 78 -18 112 -23 87 -136 796 -136 849 0 23 5 46 10 49 16 10
12 65 -5 65 -11 0 -15 13 -16 53 -1 28 -3 44 -6 35 -2 -10 -9 -18 -14 -18 -15
0 -24 52 -22 147 0 59 -3 91 -10 90 -11 -2 -60 63 -52 71 2 3 14 -6 25 -19
l21 -24 -6 28 c-8 40 -86 162 -287 452 -96 138 -181 250 -188 250 -8 0 -27 23
-41 51 -60 118 -189 299 -189 266 0 -6 4 -13 9 -16 10 -7 110 -156 131 -196
l13 -25 -23 20 c-40 35 -199 255 -345 475 -78 118 -173 256 -210 305 -203 270
-461 541 -675 710 -69 54 -129 103 -135 108 -13 13 2 8 141 -49z m3580 -342
l52 -307 -87 -91 c-48 -50 -169 -193 -269 -317 -100 -124 -186 -229 -192 -232
-7 -4 -9 2 -6 17 3 12 12 59 21 103 33 156 158 531 272 810 53 132 144 325
152 325 3 0 29 -138 57 -308z m-2053 229 c5 -5 0 -12 -12 -16 -23 -7 -92 22
-98 41 -4 13 95 -10 110 -25z m1827 -22 c-7 -16 -16 -29 -21 -29 -8 0 4 50 17
72 14 22 17 -11 4 -43z m1180 2 c0 -10 -113 -87 -167 -115 l-33 -17 0 26 c0
31 39 70 95 96 43 19 105 25 105 10z m-276 -183 c-13 -73 -37 -221 -54 -328
-59 -371 -165 -945 -181 -985 -40 -101 67 574 190 1190 36 182 54 255 64 255
2 0 -7 -60 -19 -132z m-68 9 c-18 -82 -22 -86 -129 -161 -38 -27 -98 -76 -135
-110 -36 -33 -63 -53 -59 -44 3 9 -1 30 -9 46 -11 22 -12 37 -4 56 13 35 100
127 170 180 68 52 172 117 178 111 2 -2 -3 -37 -12 -78z m1384 2 c0 -6 -25
-38 -55 -71 -30 -33 -59 -76 -65 -94 -8 -23 -18 -34 -31 -34 -13 0 -19 -7 -19
-23 0 -12 -9 -28 -20 -35 -21 -13 -75 -110 -66 -119 3 -3 14 5 25 18 11 13 20
20 20 14 1 -15 -31 -51 -55 -63 -12 -6 -24 -24 -27 -41 -3 -16 -18 -42 -32
-57 -46 -49 -295 -571 -295 -617 0 -26 23 18 89 170 86 197 183 392 188 377 2
-6 -19 -69 -48 -140 -28 -71 -91 -237 -139 -369 -48 -132 -110 -292 -138 -355
-28 -63 -69 -161 -91 -217 -107 -270 -271 -608 -368 -758 -112 -175 -263 -371
-294 -380 -27 -9 -72 -77 -57 -86 12 -7 -38 -95 -68 -119 -29 -25 -17 87 22
195 20 55 42 125 49 155 16 73 29 97 151 278 198 293 369 626 509 988 53 137
80 191 103 205 12 8 17 21 15 43 -2 17 6 49 17 71 13 26 18 31 15 15 -18 -84
-18 -86 -3 -65 8 11 40 83 70 160 31 77 72 178 92 225 20 47 36 98 36 114 0
21 4 27 15 22 10 -4 15 1 15 15 0 11 9 30 21 42 11 12 43 63 71 112 29 50 84
136 122 191 39 56 78 115 87 132 16 29 112 112 130 112 5 0 9 -5 9 -11z
m-3946 -232 c30 -146 57 -341 61 -452 8 -168 -9 -98 -50 215 -20 151 -38 289
-41 305 -4 20 -3 27 4 20 6 -5 18 -45 26 -88z m2445 -410 c-39 -238 -75 -436
-80 -441 -12 -13 -27 54 -83 371 l-52 293 141 131 c131 124 140 130 143 105 2
-15 -29 -221 -69 -459z m-496 131 c-25 -27 -196 -256 -207 -278 -5 -8 11 7 35
35 182 208 239 264 239 236 0 -5 -28 -46 -61 -91 -34 -45 -58 -84 -55 -87 3
-4 12 -1 18 5 7 7 16 12 20 12 4 0 -43 -64 -104 -142 -163 -207 -361 -488
-483 -683 -123 -198 -132 -211 -142 -202 -10 11 30 88 123 233 46 73 84 135
84 139 0 15 -23 -12 -98 -117 -44 -62 -90 -124 -103 -137 -69 -73 6 90 102
219 78 106 145 187 223 267 33 34 57 66 53 70 -11 10 -192 -177 -258 -267 -31
-41 -75 -108 -99 -148 -50 -84 -70 -105 -70 -74 0 71 738 1032 792 1032 6 0 2
-10 -9 -22z m1497 -160 c-27 -69 -83 -178 -91 -178 -10 0 39 120 72 178 27 47
37 47 19 0z m-1396 -35 c3 -10 12 -72 21 -138 9 -66 27 -187 40 -270 67 -415
86 -653 85 -1072 0 -374 -14 -669 -33 -694 -7 -9 -54 -73 -106 -141 -52 -69
-122 -169 -155 -223 -34 -53 -66 -97 -72 -97 -5 0 -36 69 -70 153 -33 85 -128
323 -209 529 l-148 375 -5 385 -5 386 118 169 c241 346 401 554 477 619 47 41
55 43 62 19z m-1804 -71 c0 -9 -5 -24 -10 -32 -7 -11 -10 -5 -10 23 0 23 4 36
10 32 6 -3 10 -14 10 -23z m1089 -947 c-1 -27 -4 -61 -9 -75 -7 -24 -8 -24
-16 -5 -11 25 -12 113 -1 140 13 31 27 -1 26 -60z m-20 -138 c9 15 12 16 20 3
14 -21 22 -147 14 -210 l-8 -55 -27 96 c-15 53 -30 116 -33 140 -6 40 -5 42 8
26 15 -18 16 -18 26 0z m-926 -134 c19 -32 73 -135 120 -228 l85 -170 -70
-245 c-39 -135 -73 -249 -77 -253 -5 -4 -11 32 -14 80 -4 48 -24 228 -46 398
-49 384 -57 475 -43 475 6 0 26 -26 45 -57z m3707 -53 c0 -6 -17 -29 -38 -53
-21 -23 -43 -54 -49 -69 -23 -53 -373 -502 -436 -558 -50 -45 -224 -289 -310
-435 -69 -119 -222 -443 -213 -452 2 -3 50 86 106 197 128 254 175 334 290
490 91 124 144 187 105 125 -397 -631 -484 -821 -800 -1740 -143 -414 -210
-602 -295 -820 -137 -351 -183 -520 -214 -775 -15 -122 -60 -695 -91 -1155
-15 -229 -28 -334 -44 -377 -19 -49 -23 17 -19 331 1 176 0 314 -4 308 -3 -7
-12 -174 -18 -372 -13 -398 -22 -531 -39 -548 -37 -37 20 1306 74 1753 8 63
19 169 24 236 9 110 15 135 66 275 149 406 272 760 322 929 65 220 98 314 191
560 206 540 372 907 540 1191 98 166 356 489 390 489 8 0 34 16 58 35 23 19
51 35 62 35 23 0 72 53 72 77 0 15 -12 15 -52 -2 -44 -18 -7 28 141 176 147
147 181 175 181 149z m-4580 -72 c0 -14 -18 -9 -24 8 -11 28 -6 39 9 20 8 -11
15 -23 15 -28z m1549 -65 c29 -58 189 -485 206 -550 12 -46 15 -135 15 -465 0
-224 -3 -408 -8 -408 -4 0 -13 29 -20 65 -30 160 -171 621 -278 911 -41 110
-74 205 -74 211 0 22 125 273 136 273 2 0 12 -17 23 -37z m-185 -398 c3 -8 13
-15 22 -15 13 0 15 -7 10 -35 -6 -31 -4 -35 14 -35 17 0 20 -6 20 -41 0 -29 7
-50 23 -69 45 -53 161 -444 263 -887 57 -251 59 -263 44 -263 -11 0 -53 132
-114 364 -25 93 -48 171 -51 174 -17 17 11 -258 32 -308 11 -27 16 -32 23 -20
7 10 10 -15 11 -75 1 -49 5 -103 10 -120 6 -21 7 -7 4 44 -2 40 -2 71 1 68 3
-3 15 -40 26 -83 11 -43 24 -87 30 -98 10 -19 11 -19 24 -1 22 30 32 9 54
-115 22 -118 25 -130 40 -130 20 0 19 46 -2 181 -21 135 -23 172 -22 590 1
440 6 511 32 463 6 -11 15 -44 21 -74 16 -82 33 -769 26 -1065 -3 -143 -6
-317 -5 -387 0 -72 -3 -128 -9 -128 -5 0 -15 15 -22 34 -12 30 -14 16 -10
-132 3 -162 -10 -302 -29 -302 -11 0 -12 7 -55 285 -106 681 -109 696 -266
1245 -121 426 -144 501 -198 652 -35 98 -40 138 -17 118 8 -6 31 -62 52 -123
50 -153 137 -373 142 -359 2 6 -28 98 -66 204 -98 270 -133 402 -101 383 23
-15 97 -217 199 -544 28 -89 54 -161 57 -158 13 14 -181 626 -227 717 -19 38
-20 60 0 60 4 0 10 -7 14 -15z m-84 -347 c32 -73 46 -118 169 -553 151 -534
184 -680 276 -1220 25 -148 53 -308 61 -355 18 -104 20 -215 5 -234 -7 -8 -35
-26 -64 -40 -29 -14 -96 -67 -150 -117 -53 -50 -103 -89 -110 -86 -8 3 -19 36
-26 73 -6 38 -36 204 -66 369 -29 165 -70 397 -90 515 -20 118 -57 312 -82
430 -102 492 -106 561 -59 875 30 196 80 405 98 405 5 0 22 -28 38 -62z m-303
-105 c-3 -10 -5 -4 -5 12 0 17 2 24 5 18 2 -7 2 -21 0 -30z m1693 2 c0 -8 -39
-72 -87 -142 -153 -225 -165 -243 -161 -255 2 -6 48 50 101 125 54 75 104 137
112 137 30 0 5 -44 -143 -252 -58 -81 -109 -145 -114 -142 -15 10 -8 91 13
138 11 26 17 55 14 66 -4 13 -2 20 8 20 17 0 50 35 71 77 20 40 20 41 -1 46
-16 3 -16 5 2 11 37 14 50 23 53 40 2 11 -1 14 -12 10 -9 -3 -16 -1 -16 5 0
11 13 15 37 12 6 -1 21 13 34 31 29 43 71 88 81 88 4 0 8 -7 8 -15z m-2665
-127 c34 -65 71 -128 83 -140 56 -61 257 -536 422 -998 26 -74 96 -262 154
-417 58 -154 120 -330 137 -390 17 -59 68 -232 114 -383 171 -563 531 -1823
621 -2170 63 -246 74 -331 74 -622 0 -135 3 -254 6 -262 4 -9 15 -21 25 -27
17 -9 18 -6 13 33 -3 24 2 102 11 173 9 72 23 207 31 300 36 444 74 619 200
940 65 166 154 441 154 475 0 35 17 30 29 -9 14 -50 15 -124 0 -98 -17 29 -29
19 -17 -15 17 -53 25 -53 42 -1 31 95 48 196 44 254 -8 108 -23 84 -23 -36 -1
-108 -6 -137 -22 -121 -15 15 -7 216 15 381 26 195 29 206 42 185 7 -10 10 5
10 47 0 40 4 63 13 66 9 3 11 58 8 242 -3 195 -1 237 10 233 45 -15 82 -448
45 -520 -10 -19 -11 -29 -3 -37 36 -36 -109 -820 -198 -1072 -47 -134 -132
-513 -185 -824 -76 -453 -92 -1349 -26 -1509 10 -26 12 58 12 504 -1 458 2
558 17 695 18 152 22 174 31 164 7 -8 45 -795 51 -1054 6 -261 11 -325 25
-325 18 0 19 180 5 690 -27 975 -21 1183 39 1363 33 98 34 100 35 57 1 -25 5
-137 11 -250 5 -113 14 -446 20 -740 13 -661 27 -1061 38 -1091 7 -18 11 -20
18 -8 14 22 16 705 4 1094 -18 531 -24 1195 -12 1302 6 50 28 156 49 235 l38
143 7 -75 c4 -41 11 -201 17 -355 28 -719 -8 -2206 -55 -2330 -4 -8 -1 -15 5
-15 20 0 49 80 60 165 6 44 15 171 21 282 6 112 12 215 15 230 17 111 17 109
26 85 11 -29 31 -24 39 9 4 15 12 23 23 21 14 -2 17 6 17 51 0 30 13 107 29
170 56 222 254 862 306 992 97 240 266 619 326 735 112 212 282 451 459 645
82 89 183 239 368 545 184 304 253 455 596 1297 11 29 25 53 30 53 15 0 -4
-103 -29 -150 -22 -44 -115 -312 -130 -375 -14 -62 14 -8 54 102 61 171 85
199 35 41 -32 -100 -94 -238 -101 -220 -6 16 -18 15 -37 -4 -20 -20 -20 -35
-1 -60 15 -18 16 -17 9 15 -4 23 -3 31 5 27 16 -11 23 -68 11 -100 -8 -23 -13
-26 -25 -16 -16 13 -31 -11 -59 -95 -27 -80 -109 -229 -135 -241 -28 -15 -53
-51 -126 -189 -32 -60 -101 -184 -152 -274 -52 -89 -92 -165 -90 -168 8 -7
205 319 306 507 28 52 51 88 51 80 -1 -24 -181 -390 -290 -590 -60 -109 -13
-53 55 65 117 203 360 690 416 834 5 13 12 21 15 18 8 -7 -17 -84 -77 -232
-180 -453 -334 -708 -721 -1197 -131 -164 -180 -233 -268 -373 -35 -55 -77
-116 -95 -135 -53 -60 -295 -560 -270 -560 2 0 53 101 113 225 61 124 113 225
115 225 3 0 -38 -105 -90 -232 -141 -345 -210 -536 -238 -653 -14 -59 -36
-122 -50 -143 -32 -48 -85 -213 -85 -263 0 -21 -5 -39 -10 -39 -50 0 -209
-701 -225 -985 -3 -55 -3 -95 0 -90 2 6 23 122 45 259 64 392 104 574 117 540
2 -7 -14 -124 -36 -260 -35 -216 -55 -362 -77 -571 l-5 -51 -217 -3 c-119 -2
-288 -4 -375 -4 l-159 0 -23 27 c-17 20 -25 44 -29 95 -11 119 -24 172 -112
458 -104 343 -240 818 -328 1145 -36 135 -79 287 -96 339 -33 101 -35 139 -5
81 10 -19 20 -29 22 -23 7 20 -99 236 -108 221 -11 -17 -69 108 -69 148 0 17
-7 37 -15 44 -11 9 -13 15 -5 20 9 5 7 16 -4 39 -18 35 -31 42 -21 11 3 -11 4
-20 2 -20 -8 0 -66 108 -292 545 -117 226 -247 469 -290 540 -98 163 -338 642
-398 795 -122 311 -215 627 -232 785 -3 33 -9 72 -11 88 -3 15 -2 27 3 27 9 0
5 8 158 -350 226 -532 396 -886 526 -1101 45 -74 130 -219 189 -324 60 -104
144 -253 188 -330 117 -205 105 -197 -82 50 -136 180 -210 290 -300 447 -73
127 -107 168 -57 70 74 -147 206 -359 298 -481 36 -48 43 -74 17 -64 -14 5
-15 3 -4 -18 35 -66 258 -433 278 -457 31 -36 29 -31 -71 140 -84 144 -157
280 -157 294 0 13 46 -36 101 -106 30 -38 66 -74 80 -80 27 -12 85 -82 114
-138 32 -64 7 -43 -40 33 -26 42 -50 73 -53 70 -6 -6 65 -152 108 -219 33 -52
52 -57 26 -7 -19 35 -20 41 -5 41 17 0 41 -70 34 -102 -8 -35 11 -88 32 -88
11 0 13 -7 9 -25 -5 -19 -2 -25 10 -25 12 0 15 -7 12 -30 -4 -23 -1 -30 11
-28 12 2 17 -9 21 -49 3 -28 12 -60 21 -70 26 -30 15 7 218 -733 38 -140 106
-397 151 -570 74 -288 100 -370 100 -314 0 101 -248 1100 -516 2084 -182 663
-438 1548 -561 1930 -49 154 -289 848 -369 1065 -5 15 -4 17 5 9 21 -19 116
-243 180 -424 74 -206 100 -270 112 -270 19 0 7 47 -57 218 -123 335 -206 532
-233 563 -15 16 -54 89 -85 162 -66 150 -123 257 -136 257 -6 0 -10 14 -10 30
0 20 -5 30 -15 30 -15 0 -20 21 -8 34 19 19 43 -9 98 -116z m2645 -143 c0 -34
-17 -68 -80 -165 -31 -47 -74 -118 -96 -157 -21 -40 -43 -71 -49 -70 -5 2 -11
22 -13 45 -4 47 15 89 91 202 119 178 147 205 147 145z m-650 -62 c32 -69 130
-318 130 -332 0 -9 -20 -61 -45 -116 -28 -62 -50 -133 -60 -185 -8 -47 -23
-112 -33 -145 l-19 -60 -9 280 c-11 336 -12 544 -2 568 10 24 23 21 38 -10z
m636 -384 c-21 -309 -37 -468 -47 -444 -18 48 -122 393 -126 415 -4 27 71 168
142 265 39 54 40 55 43 26 2 -16 -4 -134 -12 -262z m-1019 179 c-3 -7 -5 -2
-5 12 0 14 2 19 5 13 2 -7 2 -19 0 -25z m553 -247 c0 -26 -23 -124 -60 -251
-16 -58 -30 -116 -29 -130 1 -29 8 -10 64 173 20 64 41 117 46 117 6 0 17 -16
25 -35 17 -41 19 -145 3 -145 -8 0 -9 -13 -5 -40 5 -31 2 -47 -13 -68 -11 -15
-27 -65 -36 -112 -10 -47 -37 -166 -60 -265 -60 -249 -91 -413 -120 -638 -27
-215 -32 -267 -75 -802 -48 -596 -89 -982 -130 -1220 -18 -106 -92 -390 -104
-402 -17 -18 15 411 144 1937 33 382 64 633 126 1005 46 277 127 639 186 828
20 65 38 87 38 48z m209 -595 c39 -117 73 -230 76 -252 l6 -39 -199 -205
c-110 -113 -203 -202 -207 -198 -27 26 119 651 206 884 20 52 23 56 35 39 7
-9 45 -113 83 -229z m2104 14 c-7 -28 -13 -25 -13 6 0 14 4 23 9 20 5 -3 7
-15 4 -26z m-1937 -337 c25 -98 47 -209 49 -248 l4 -70 -15 65 c-69 288 -104
439 -104 451 1 36 23 -31 66 -198z m-155 -176 c-63 -132 -163 -235 -218 -224
-29 5 -29 1 3 -27 26 -22 26 -23 10 -55 -18 -35 -166 -194 -173 -187 -12 12
21 119 48 156 36 49 53 57 75 36 12 -13 19 -14 30 -5 22 18 18 42 -6 34 -14
-5 -20 -2 -20 9 0 22 -8 20 -47 -10 -75 -57 -35 -8 143 175 103 105 189 190
191 187 2 -2 -14 -42 -36 -89z m108 56 c20 -51 30 -117 40 -263 14 -185 14
-774 1 -995 -13 -216 -68 -877 -74 -882 -2 -3 -9 5 -16 17 -50 94 -36 862 31
1608 12 134 19 246 15 249 -10 10 -37 -19 -61 -67 -39 -77 -66 -167 -100 -335
-18 -88 -35 -153 -38 -145 -3 8 -14 52 -25 97 -28 107 -59 172 -88 184 -32 11
-30 26 9 80 17 26 65 93 105 150 71 100 172 286 172 315 0 24 17 16 29 -13z
m-713 -601 c-8 -62 -22 -127 -31 -146 -9 -19 -46 -68 -82 -108 -152 -172 -271
-387 -343 -618 -23 -74 -46 -146 -50 -160 l-8 -25 -1 27 c-3 110 108 415 224
613 45 78 45 102 -1 50 -40 -45 -164 -288 -209 -410 -39 -106 -44 -70 -10 65
15 56 25 115 22 129 -4 19 0 30 13 38 10 7 47 61 83 120 73 121 108 169 215
296 40 48 69 87 64 87 -17 0 -177 -174 -232 -252 -29 -43 -55 -76 -57 -74 -3
2 9 31 26 64 62 123 226 311 336 386 28 19 51 33 53 31 1 -1 -4 -52 -12 -113z
m640 46 c-15 -171 -37 -614 -42 -873 -5 -212 -3 -336 10 -510 9 -126 21 -342
26 -480 16 -411 10 -1023 -10 -985 -2 3 -8 57 -14 120 l-12 115 -7 -180 c-9
-189 -20 -294 -39 -357 -21 -70 -28 -39 -22 90 6 145 -2 265 -19 255 -7 -4 -8
2 -2 18 4 13 11 134 15 269 8 256 17 350 31 315 4 -11 8 -54 9 -95 1 -41 6
-102 10 -135 5 -44 7 -14 8 115 2 174 -3 224 -19 215 -26 -17 -22 158 6 211
10 21 15 56 14 124 -1 70 -3 85 -9 57 -4 -20 -9 -39 -12 -42 -7 -7 -18 304
-19 570 -1 151 -4 213 -9 180 -5 -27 -9 -169 -10 -315 -1 -146 -5 -326 -9
-400 -6 -121 -7 -100 -15 205 -14 546 -4 727 69 1265 18 130 43 264 56 297 16
42 22 23 15 -49z m-294 -70 c5 -113 -6 -334 -27 -523 -17 -146 -68 -474 -88
-560 l-12 -50 -7 50 c-4 28 -10 210 -14 405 -7 383 0 514 38 625 18 56 79 145
98 145 4 0 10 -42 12 -92z m-385 -498 c-3 -110 -14 -262 -26 -350 -12 -85 -23
-204 -27 -265 -3 -60 -8 -121 -10 -135 -5 -22 -7 -23 -15 -7 -16 27 -45 193
-79 436 -35 256 -36 279 -14 351 13 44 29 66 92 128 62 61 78 71 81 56 2 -10
1 -107 -2 -214z m-188 -427 c80 -554 101 -843 75 -1012 -10 -64 -23 -16 -44
162 -12 97 -46 316 -76 485 -65 368 -86 523 -78 571 3 20 20 60 37 89 l32 53
7 -35 c4 -19 25 -160 47 -313z m-296 275 c-21 -72 -45 -130 -50 -124 -5 5 33
127 49 159 16 32 17 17 1 -35z m171 -463 c90 -481 144 -895 117 -895 -6 0 -11
2 -11 5 0 3 -33 125 -74 272 -123 444 -141 533 -133 657 2 47 14 110 28 150
28 80 19 102 73 -189z m525 -45 c1 -67 -5 -142 -14 -180 -17 -73 -65 -194 -73
-185 -9 9 -3 87 23 275 13 96 27 211 31 255 l8 80 12 -65 c7 -36 13 -117 13
-180z m351 -879 c0 -22 -4 -43 -10 -46 -6 -4 -10 12 -10 39 0 25 5 46 10 46 6
0 10 -18 10 -39z m-693 -68 c-3 -10 -5 -4 -5 12 0 17 2 24 5 18 2 -7 2 -21 0
-30z m3 -53 c0 -12 -28 -25 -36 -17 -9 9 6 27 22 27 8 0 14 -5 14 -10z m-1685
-63 c22 -12 49 -38 60 -56 11 -19 36 -49 54 -68 25 -24 30 -33 18 -33 -18 0
-146 106 -171 142 -31 44 -19 48 39 15z m183 -111 c36 -19 179 -168 273 -286
88 -111 337 -446 392 -527 39 -59 50 -95 16 -54 -11 13 -23 21 -27 17 -10 -11
267 -275 319 -306 61 -36 119 -96 119 -125 0 -24 30 -42 50 -30 5 3 16 -9 23
-27 8 -18 25 -42 37 -53 l23 -20 -6 20 c-7 20 -7 20 8 1 8 -11 15 -23 15 -27
0 -4 20 -19 45 -33 80 -48 199 -209 193 -263 -3 -26 -13 -19 -168 132 -91 89
-205 194 -253 235 -49 40 -143 130 -209 199 -116 122 -132 134 -79 61 65 -89
117 -142 266 -270 159 -137 255 -230 309 -303 54 -70 18 -49 -96 60 -63 59
-161 142 -218 183 -171 124 -295 227 -355 293 -74 81 -165 217 -308 457 -63
107 -136 222 -162 255 -48 61 -115 169 -115 185 0 5 -10 20 -22 33 -37 39 -98
119 -98 128 0 47 146 -91 269 -254 41 -53 72 -100 68 -103 -3 -3 -18 2 -34 12
l-28 18 24 -27 c14 -15 32 -27 41 -27 9 0 21 -5 28 -12 17 -17 15 -39 -3 -32
-8 4 -15 4 -15 1 0 -4 20 -15 45 -26 25 -11 45 -25 45 -30 0 -23 -2 -26 -16
-23 -19 4 -18 -5 7 -44 26 -42 33 -43 24 -4 -4 17 -5 30 -2 30 2 0 43 -51 90
-113 87 -115 113 -144 123 -135 2 3 -26 45 -64 94 -37 49 -126 170 -197 269
-192 268 -269 359 -367 432 -62 45 -67 69 -10 39z m2439 -1733 c-3 -10 -5 -4
-5 12 0 17 2 24 5 18 2 -7 2 -21 0 -30z"/>
<path d="M4302 11705 c0 -16 2 -22 5 -12 2 9 2 23 0 30 -3 6 -5 -1 -5 -18z"/>
<path d="M4112 11020 c0 -14 2 -19 5 -12 2 6 2 18 0 25 -3 6 -5 1 -5 -13z"/>
<path d="M2440 10425 c0 -15 4 -24 10 -20 6 3 10 12 10 20 0 8 -4 17 -10 20
-6 4 -10 -5 -10 -20z"/>
<path d="M2352 10329 c-17 -45 -22 -79 -13 -79 10 0 36 88 28 97 -4 3 -10 -5
-15 -18z"/>
<path d="M2420 10323 c0 -21 3 -24 9 -14 5 8 7 20 4 28 -8 21 -13 15 -13 -14z"/>
<path d="M2393 10166 c-7 -33 -13 -75 -12 -95 1 -33 2 -32 15 19 8 30 13 73
11 95 -2 39 -2 39 -14 -19z"/>
<path d="M2310 10175 c0 -14 5 -25 10 -25 6 0 10 11 10 25 0 14 -4 25 -10 25
-5 0 -10 -11 -10 -25z"/>
<path d="M2290 10040 c0 -16 5 -30 10 -30 6 0 10 14 10 30 0 17 -4 30 -10 30
-5 0 -10 -13 -10 -30z"/>
<path d="M2363 9955 c0 -22 2 -30 4 -17 2 12 2 30 0 40 -3 9 -5 -1 -4 -23z"/>
<path d="M2261 9860 c-14 -86 -14 -122 -1 -99 12 21 29 159 20 164 -4 3 -12
-27 -19 -65z"/>
<path d="M2337 9828 c-2 -7 -1 -22 4 -33 6 -16 8 -14 8 13 1 33 -4 41 -12 20z"/>
<path d="M2317 9665 c-8 -26 -27 -170 -27 -198 1 -47 18 10 30 99 12 88 10
143 -3 99z"/>
<path d="M5606 10594 c-9 -23 -8 -24 15 -24 11 0 17 -4 14 -10 -3 -5 -14 -10
-24 -10 -32 0 -114 -104 -220 -283 -58 -97 -105 -203 -96 -218 4 -5 -5 -13
-19 -19 -39 -15 -65 -80 -31 -80 16 0 18 9 15 50 -2 24 -1 24 16 8 17 -17 21
-12 87 113 38 72 70 142 70 155 0 16 6 24 20 26 12 2 35 22 52 44 70 95 166
236 172 252 6 15 5 16 -12 2 -14 -11 -19 -12 -22 -2 -6 17 -30 15 -37 -4z
m-111 -224 c-31 -45 -55 -55 -28 -12 24 39 45 63 51 57 3 -2 -8 -23 -23 -45z
m-110 -174 c-10 -20 -21 -36 -26 -36 -10 0 -1 26 19 58 22 34 26 19 7 -22z"/>
<path d="M5196 9902 c-14 -23 -25 -62 -17 -62 11 0 36 59 28 66 -3 3 -8 1 -11
-4z"/>
<path d="M5226 9863 c-9 -21 -24 -47 -32 -58 -13 -17 -16 -18 -24 -5 -8 12
-10 11 -10 -7 0 -28 10 -53 21 -53 10 0 58 91 70 132 11 41 -5 34 -25 -9z"/>
<path d="M4972 9214 c-20 -47 -31 -95 -22 -89 13 8 43 92 38 106 -2 7 -10 -1
-16 -17z"/>
<path d="M4213 9114 c-3 -8 -1 -20 6 -27 8 -8 11 -4 11 16 0 30 -7 35 -17 11z"/>
<path d="M4243 8975 c0 -22 2 -30 4 -17 2 12 2 30 0 40 -3 9 -5 -1 -4 -23z"/>
<path d="M4846 8881 c-18 -35 -19 -41 -7 -41 11 0 36 59 28 66 -3 3 -13 -8
-21 -25z"/>
<path d="M4263 8825 c0 -22 2 -30 4 -17 2 12 2 30 0 40 -3 9 -5 -1 -4 -23z"/>
<path d="M4282 8715 c0 -16 2 -22 5 -12 2 9 2 23 0 30 -3 6 -5 -1 -5 -18z"/>
<path d="M4302 8595 c0 -16 2 -22 5 -12 2 9 2 23 0 30 -3 6 -5 -1 -5 -18z"/>
<path d="M4346 8577 c-5 -9 -5 -29 0 -45 7 -25 8 -26 11 -4 3 12 3 32 0 45 -3
19 -4 20 -11 4z"/>
<path d="M4302 8490 c0 -19 2 -27 5 -17 2 9 2 25 0 35 -3 9 -5 1 -5 -18z"/>
<path d="M4328 7948 c-2 -23 -1 -60 3 -82 5 -32 7 -23 8 42 1 88 -4 109 -11
40z"/>
<path d="M4373 7585 c0 -27 2 -38 4 -22 2 15 2 37 0 50 -2 12 -4 0 -4 -28z"/>
<path d="M3400 7338 c0 -11 40 -136 56 -173 29 -71 25 -26 -6 67 -27 79 -50
128 -50 106z"/>
<path d="M3550 6930 c34 -88 110 -244 115 -238 3 3 -21 65 -55 139 -62 137
-98 197 -60 99z"/>
<path d="M3700 6629 c0 -3 45 -124 101 -270 84 -219 286 -814 342 -1004 23
-78 20 -15 -4 78 -41 163 -112 387 -194 609 -121 328 -245 625 -245 587z"/>
<path d="M4194 5135 c3 -22 8 -65 12 -95 7 -64 23 -102 24 -57 0 48 -21 171
-32 182 -7 7 -8 -3 -4 -30z"/>
<path d="M3300 11954 c-12 -30 0 -53 17 -32 17 20 19 50 6 55 -7 3 -18 -8 -23
-23z"/>
<path d="M4705 10850 c-4 -6 -1 -17 5 -26 10 -11 16 -12 26 -3 11 9 11 15 3
25 -14 17 -25 18 -34 4z"/>
<path d="M2870 10556 c0 -7 7 -19 15 -26 16 -13 20 -3 9 24 -8 20 -24 21 -24
2z"/>
<path d="M2984 10332 c3 -28 10 -60 16 -70 9 -13 10 -5 6 36 -3 28 -10 60 -16
70 -9 13 -10 5 -6 -36z"/>
<path d="M3545 9657 c-17 -41 -20 -77 -6 -61 11 11 32 86 26 92 -3 3 -12 -11
-20 -31z"/>
<path d="M3196 9325 c4 -16 11 -39 15 -50 6 -17 8 -15 8 11 1 16 -6 39 -14 50
-14 18 -15 17 -9 -11z"/>
<path d="M3230 9185 c0 -15 4 -24 10 -20 6 3 10 12 10 20 0 8 -4 17 -10 20 -6
4 -10 -5 -10 -20z"/>
<path d="M3250 9100 c0 -11 5 -20 10 -20 6 0 10 9 10 20 0 11 -4 20 -10 20 -5
0 -10 -9 -10 -20z"/>
<path d="M3276 9014 c-3 -9 -2 -23 4 -32 7 -14 9 -10 10 16 0 35 -5 41 -14 16z"/>
<path d="M3296 8913 c-4 -9 -2 -21 4 -27 7 -7 10 -2 10 17 0 31 -5 34 -14 10z"/>
<path d="M1780 10404 c0 -11 8 -14 27 -12 39 4 42 28 4 28 -21 0 -31 -5 -31
-16z"/>
<path d="M4690 10440 c0 -5 9 -10 20 -10 11 0 20 5 20 10 0 6 -9 10 -20 10
-11 0 -20 -4 -20 -10z"/>
<path d="M4680 10395 c-7 -8 -10 -19 -6 -22 9 -9 38 8 38 22 -1 16 -18 16 -32
0z"/>
<path d="M2190 8603 c0 -5 7 -18 15 -29 12 -16 14 -16 15 -3 0 9 -7 22 -15 29
-8 7 -15 8 -15 3z"/>
<path d="M2282 8435 c6 -14 15 -25 20 -25 11 0 10 7 -2 31 -16 28 -32 23 -18
-6z"/>
<path d="M2411 8379 c16 -34 33 -58 36 -55 7 7 -48 116 -59 116 -4 0 6 -27 23
-61z"/>
<path d="M2367 8293 c6 -23 31 -58 37 -52 7 6 -25 69 -34 69 -5 0 -6 -8 -3
-17z"/>
<path d="M2440 8173 c21 -45 30 -53 30 -29 0 8 -11 28 -25 43 l-26 28 21 -42z"/>
<path d="M2487 8094 c-3 -5 0 -20 7 -33 7 -13 16 -20 19 -15 3 5 0 20 -7 33
-7 13 -16 20 -19 15z"/>
<path d="M2620 8032 c0 -20 29 -72 41 -72 9 0 -6 34 -30 70 -8 11 -11 11 -11
2z"/>
<path d="M2620 7895 c0 -18 19 -40 26 -32 4 4 0 15 -9 24 -9 10 -17 13 -17 8z"/>
<path d="M1390 9278 c0 -9 215 -306 238 -328 23 -23 -17 41 -102 160 -78 110
-135 180 -136 168z"/>
<path d="M1451 9040 c18 -22 37 -40 43 -40 5 0 -8 18 -29 40 -21 22 -41 40
-43 40 -1 0 12 -18 29 -40z"/>
<path d="M1660 8897 c0 -17 69 -97 70 -81 0 12 -57 94 -65 94 -3 0 -5 -6 -5
-13z"/>
<path d="M1340 8319 c0 -9 7 -22 15 -29 19 -16 19 0 0 26 -12 16 -14 16 -15 3z"/>
<path d="M1425 8136 c62 -121 85 -158 85 -137 0 20 -88 184 -117 217 -16 19
-4 -10 32 -80z"/>
<path d="M1610 7914 c0 -11 7 -29 15 -40 19 -26 20 1 0 36 -13 23 -14 23 -15
4z"/>
<path d="M2250 7763 c0 -18 2 -33 4 -33 9 0 13 39 5 51 -6 10 -9 4 -9 -18z"/>
<path d="M2807 7588 c-37 -91 -161 -418 -172 -458 -5 -17 -4 -22 3 -15 6 6 29
60 52 120 23 61 67 171 97 245 63 153 75 190 63 190 -4 0 -24 -37 -43 -82z"/>
<path d="M1740 7552 c0 -15 32 -107 41 -116 14 -15 11 15 -7 67 -14 43 -34 71
-34 49z"/>
<path d="M1800 7371 c0 -42 166 -366 273 -534 79 -125 66 -81 -21 70 -44 76
-117 213 -162 303 -85 172 -90 181 -90 161z"/>
<path d="M2617 7013 c-7 -11 -47 -206 -47 -225 1 -33 20 26 40 121 19 94 21
127 7 104z"/>
<path d="M2084 6716 c7 -22 48 -75 59 -75 15 -2 6 17 -29 55 -20 22 -33 31
-30 20z"/>
<path d="M2553 6685 c0 -22 2 -30 4 -17 2 12 2 30 0 40 -3 9 -5 -1 -4 -23z"/>
<path d="M2356 6340 c30 -64 88 -160 97 -160 11 0 -61 131 -91 168 l-23 27 17
-35z"/>
<path d="M2570 5911 c0 -17 23 -61 31 -61 10 0 -10 58 -22 66 -5 3 -9 1 -9 -5z"/>
<path d="M2610 5545 c0 -14 5 -25 10 -25 6 0 10 11 10 25 0 14 -4 25 -10 25
-5 0 -10 -11 -10 -25z"/>
<path d="M4350 9854 c-38 -37 -70 -71 -70 -77 0 -12 118 91 138 121 25 37 5
25 -68 -44z"/>
<path d="M4355 9769 c-33 -34 -51 -57 -40 -51 19 10 43 34 89 90 35 42 11 22
-49 -39z"/>
<path d="M5342 8808 c-6 -6 -12 -19 -12 -27 0 -13 2 -13 16 1 9 9 15 21 13 27
-3 9 -8 8 -17 -1z"/>
<path d="M5250 8734 c-16 -48 -4 -56 15 -11 18 42 18 47 6 47 -5 0 -15 -16
-21 -36z"/>
<path d="M5198 8574 c-12 -19 -26 -94 -18 -94 11 0 32 66 28 87 -2 11 -6 14
-10 7z"/>
<path d="M5151 8422 c-7 -13 -11 -26 -8 -28 8 -8 29 25 25 38 -3 8 -9 4 -17
-10z"/>
<path d="M4892 7918 c-18 -23 -54 -100 -48 -105 5 -5 66 96 66 110 0 10 -6 9
-18 -5z"/>
<path d="M4891 7793 c-52 -70 -96 -143 -87 -143 3 0 25 28 49 63 98 138 129
204 38 80z"/>
<path d="M4753 7703 c-67 -94 -116 -173 -111 -178 5 -5 87 106 143 193 46 70
21 58 -32 -15z"/>
<path d="M4682 7476 c-28 -40 -52 -77 -52 -81 0 -10 64 68 90 110 39 64 16 46
-38 -29z"/>
<path d="M4570 7436 c-17 -25 -26 -46 -21 -46 13 0 66 78 58 86 -3 3 -19 -15
-37 -40z"/>
<path d="M4689 7383 c-93 -126 -112 -154 -106 -159 2 -2 36 37 74 88 84 112
107 147 101 153 -3 3 -34 -34 -69 -82z"/>
<path d="M3880 9235 c-19 -19 -29 -35 -24 -35 6 0 25 16 44 35 19 19 29 35 24
35 -6 0 -25 -16 -44 -35z"/>
<path d="M3521 8754 c-36 -41 -49 -64 -38 -64 8 0 89 102 84 106 -2 3 -23 -16
-46 -42z"/>
<path d="M5951 7746 c-39 -46 -71 -89 -71 -95 0 -28 20 -6 103 111 26 37 45
68 43 68 -3 0 -37 -38 -75 -84z"/>
<path d="M5723 7443 c-63 -86 -106 -154 -100 -159 5 -5 83 98 132 174 45 69
22 58 -32 -15z"/>
<path d="M5635 7418 c-36 -43 -249 -367 -367 -558 -97 -158 -147 -249 -192
-354 -47 -106 -20 -70 57 76 101 193 162 297 274 463 78 114 225 340 257 393
14 23 -2 12 -29 -20z"/>
<path d="M5042 6250 c-18 -40 -32 -80 -30 -89 2 -9 18 19 36 62 42 100 37 123
-6 27z"/>
<path d="M4837 5723 c-29 -57 -32 -67 -17 -58 16 10 52 85 47 98 -2 7 -16 -11
-30 -40z"/>
<path d="M4782 5595 c-7 -14 -12 -36 -12 -48 1 -20 1 -21 11 -4 16 27 29 77
20 77 -4 0 -13 -11 -19 -25z"/>
<path d="M4746 5481 c-3 -4 -10 -20 -15 -35 -15 -39 3 -32 22 9 9 19 13 35 7
35 -5 0 -11 -4 -14 -9z"/>
<path d="M4690 5334 c-22 -51 -28 -94 -8 -60 14 24 39 106 32 106 -3 0 -14
-21 -24 -46z"/>
<path d="M4632 5185 c-14 -31 -16 -63 -3 -49 13 14 31 74 22 74 -4 0 -13 -11
-19 -25z"/>
<path d="M4591 5033 c-7 -29 -11 -58 -8 -65 6 -19 29 64 25 92 -3 19 -7 13
-17 -27z"/>
<path d="M4393 4570 c-45 -123 -67 -210 -44 -170 18 31 82 225 78 239 -1 9
-17 -22 -34 -69z"/>
<path d="M4272 4151 c-6 -19 -12 -43 -11 -55 0 -16 4 -13 15 13 8 18 14 43 12
55 -3 17 -6 15 -16 -13z"/>
<path d="M3060 6696 c0 -22 21 -76 30 -76 5 0 2 20 -7 45 -15 46 -23 56 -23
31z"/>
<path d="M3100 6573 c0 -24 22 -83 31 -83 10 0 7 16 -12 68 -8 21 -19 30 -19
15z"/>
<path d="M3250 5946 c0 -14 5 -28 10 -31 6 -4 10 7 10 24 0 17 -4 31 -10 31
-5 0 -10 -11 -10 -24z"/>
<path d="M3325 5885 c9 -90 36 -239 46 -250 6 -5 7 11 3 40 -20 168 -61 345
-49 210z"/>
<path d="M3276 5794 c-3 -9 -2 -23 4 -32 7 -14 9 -10 10 16 0 35 -5 41 -14 16z"/>
<path d="M3420 5660 c0 -11 5 -20 10 -20 6 0 10 9 10 20 0 11 -4 20 -10 20 -5
0 -10 -9 -10 -20z"/>
<path d="M3302 5598 c11 -102 39 -262 45 -268 8 -7 -5 130 -24 242 -19 114
-33 131 -21 26z"/>
<path d="M3380 5535 c1 -26 2 -28 11 -12 8 14 8 22 0 30 -8 8 -11 3 -11 -18z"/>
<path d="M3360 5260 c0 -10 5 -53 11 -95 13 -88 34 -104 24 -17 -11 93 -35
171 -35 112z"/>
<path d="M3952 6528 c-14 -14 -16 -38 -2 -38 13 0 32 38 22 44 -5 3 -14 0 -20
-6z"/>
<path d="M1686 6538 c16 -55 37 -93 41 -76 2 9 -5 35 -17 57 -22 45 -35 54
-24 19z"/>
<path d="M2010 5600 c0 -11 5 -20 10 -20 6 0 10 9 10 20 0 11 -4 20 -10 20 -5
0 -10 -9 -10 -20z"/>
<path d="M2045 5500 c11 -49 37 -107 42 -93 3 7 -3 35 -12 63 -19 58 -41 80
-30 30z"/>
<path d="M2104 5335 c16 -71 37 -134 47 -140 11 -7 6 21 -18 100 -18 57 -40
88 -29 40z"/>
<path d="M2186 5223 c-4 -9 -2 -21 4 -27 7 -7 10 -2 10 17 0 31 -5 34 -14 10z"/>
<path d="M5802 5093 c-18 -32 -16 -51 4 -31 9 8 14 24 12 34 -4 18 -5 17 -16
-3z"/>
<path d="M2192 5050 c0 -19 2 -27 5 -17 2 9 2 25 0 35 -3 9 -5 1 -5 -18z"/>
<path d="M2250 4981 c0 -25 6 -27 13 -6 4 8 2 17 -3 20 -6 4 -10 -3 -10 -14z"/>
<path d="M2211 4955 c0 -16 6 -43 14 -60 l13 -30 1 30 c0 17 -6 44 -14 60
l-13 30 -1 -30z"/>
<path d="M5725 4916 c-9 -14 -15 -31 -13 -38 3 -7 12 2 22 20 21 41 14 54 -9
18z"/>
<path d="M1550 4889 c0 -9 7 -22 15 -29 19 -16 19 0 0 26 -12 16 -14 16 -15 3z"/>
<path d="M2291 4833 c-2 -20 69 -197 85 -213 10 -10 7 8 -11 55 -32 87 -73
174 -74 158z"/>
<path d="M2255 4796 c2 -22 9 -44 15 -50 15 -15 12 23 -6 59 l-14 30 5 -39z"/>
<path d="M5675 4798 c-7 -18 -11 -35 -9 -37 6 -6 32 30 37 52 9 30 -13 18 -28
-15z"/>
<path d="M1595 4783 c10 -42 54 -137 61 -130 6 6 -55 157 -63 157 -3 0 -2 -12
2 -27z"/>
<path d="M2401 4365 c0 -11 7 -38 15 -60 l14 -40 -4 48 c-4 47 -27 95 -25 52z"/>
<path d="M2460 4144 c0 -14 4 -23 10 -19 6 3 10 15 10 26 0 10 -4 19 -10 19
-5 0 -10 -12 -10 -26z"/>
<path d="M5227 3883 c-4 -3 -7 -16 -7 -27 1 -21 1 -21 15 -2 8 11 15 23 15 28
0 10 -14 11 -23 1z"/>
<path d="M3772 3835 c0 -16 2 -22 5 -12 2 9 2 23 0 30 -3 6 -5 -1 -5 -18z"/>
<path d="M3751 3734 c-2 -35 -22 -84 -34 -81 -6 1 -13 -8 -15 -21 -5 -30 18
-96 29 -85 11 11 32 165 26 190 -4 15 -5 15 -6 -3z"/>
<path d="M3662 3445 c0 -16 2 -22 5 -12 2 9 2 23 0 30 -3 6 -5 -1 -5 -18z"/>
<path d="M2478 3175 c10 -22 43 -89 74 -150 30 -60 72 -153 92 -205 20 -52 44
-108 52 -125 l14 -30 -6 35 c-3 19 -15 62 -26 95 -27 81 -161 353 -193 390
l-25 30 18 -40z"/>
<path d="M3608 3074 c-23 -57 -37 -114 -29 -114 10 0 54 126 49 142 -2 6 -11
-6 -20 -28z"/>
<path d="M3515 2810 c-47 -93 -77 -170 -66 -170 8 0 73 134 97 203 20 57 8 44
-31 -33z"/>
<path d="M3416 2561 c-18 -35 -19 -41 -7 -41 11 0 36 59 28 66 -3 3 -13 -8
-21 -25z"/>
<path d="M2680 2512 c0 -20 63 -138 67 -125 2 6 -7 33 -21 60 -34 64 -46 81
-46 65z"/>
<path d="M3360 2416 c0 -31 6 -34 13 -6 3 11 1 23 -4 26 -5 3 -9 -6 -9 -20z"/>
<path d="M2770 2317 c0 -34 69 -201 70 -170 0 15 -60 183 -66 183 -2 0 -4 -6
-4 -13z"/>
<path d="M4331 2279 c-16 -45 -14 -70 3 -39 21 38 28 70 18 70 -6 0 -15 -14
-21 -31z"/>
<path d="M3060 2185 c1 -26 2 -28 11 -12 8 14 8 22 0 30 -8 8 -11 3 -11 -18z"/>
<path d="M3022 2115 c0 -16 2 -22 5 -12 2 9 2 23 0 30 -3 6 -5 -1 -5 -18z"/>
<path d="M4243 2050 c-213 -569 -342 -1059 -357 -1350 -7 -133 9 -84 23 72 17
186 80 421 275 1037 47 151 85 280 83 285 -2 6 -13 -14 -24 -44z"/>
<path d="M2851 2073 c-1 -30 58 -256 69 -267 14 -14 13 -9 -14 107 -29 119
-54 193 -55 160z"/>
<path d="M3042 2000 c0 -19 2 -27 5 -17 2 9 2 25 0 35 -3 9 -5 1 -5 -18z"/>
<path d="M3060 1885 c1 -26 2 -28 11 -12 8 14 8 22 0 30 -8 8 -11 3 -11 -18z"/>
<path d="M2934 1733 c2 -10 7 -33 11 -50 4 -18 11 -33 16 -33 11 0 11 2 -2 56
-6 24 -16 44 -21 44 -5 0 -7 -8 -4 -17z"/>
<path d="M2984 1580 c3 -14 6 -33 6 -42 0 -10 5 -18 11 -18 14 0 4 60 -13 75
-8 7 -9 3 -4 -15z"/>
<path d="M3995 1506 c-9 -21 -15 -48 -13 -60 3 -15 9 -5 21 33 20 64 14 81 -8
27z"/>
<path d="M3025 1445 c12 -76 38 -175 47 -175 5 0 6 10 3 23 -2 12 -12 53 -20
91 -18 80 -40 125 -30 61z"/>
<path d="M3192 1190 c0 -19 2 -27 5 -17 2 9 2 25 0 35 -3 9 -5 1 -5 -18z"/>
<path d="M3617 5713 c-2 -4 -8 -24 -12 -43 -3 -19 -9 -43 -11 -52 -3 -10 -1
-18 4 -18 10 0 38 107 30 116 -3 3 -8 2 -11 -3z"/>
<path d="M3570 5526 c0 -14 5 -28 10 -31 6 -4 10 7 10 24 0 17 -4 31 -10 31
-5 0 -10 -11 -10 -24z"/>
<path d="M3550 5395 c0 -14 5 -25 10 -25 6 0 10 11 10 25 0 14 -4 25 -10 25
-5 0 -10 -11 -10 -25z"/>
<path d="M3635 4720 c-15 -16 -15 -20 -3 -20 8 0 23 9 33 20 15 16 15 20 3 20
-8 0 -23 -9 -33 -20z"/>
<path d="M3216 4354 c-39 -43 -82 -114 -68 -114 24 0 122 133 108 147 -3 3
-21 -12 -40 -33z"/>
<path d="M3922 2620 c0 -19 2 -27 5 -17 2 9 2 25 0 35 -3 9 -5 1 -5 -18z"/>
<path d="M1850 1875 c13 -14 26 -23 28 -20 7 7 -29 45 -41 45 -6 0 0 -11 13
-25z"/>
<path d="M2990 675 c19 -19 36 -35 39 -35 3 0 -10 16 -29 35 -19 19 -36 35
-39 35 -3 0 10 -16 29 -35z"/>
<path d="M4472 821 c-23 -40 -31 -94 -12 -75 15 15 51 114 42 114 -5 0 -18
-17 -30 -39z"/>
<path d="M2287 624 c-20 -70 -21 -100 -6 -110 6 -3 17 0 26 8 11 12 13 29 6
89 l-8 74 -18 -61z"/>
<path d="M4708 668 c-13 -33 -22 -225 -10 -232 7 -4 13 10 17 36 8 56 2 218
-7 196z"/>
<path d="M4640 524 c0 -21 4 -33 10 -29 6 3 10 19 10 36 0 16 -4 29 -10 29 -5
0 -10 -16 -10 -36z"/>
<path d="M4555 440 c-10 -32 6 -46 21 -19 7 13 10 27 8 31 -9 14 -23 8 -29
-12z"/>
<path d="M5178 303 c17 -2 47 -2 65 0 17 2 3 4 -33 4 -36 0 -50 -2 -32 -4z"/>
<path d="M5345 300 c3 -5 12 -10 20 -10 8 0 17 5 20 10 4 6 -5 10 -20 10 -15
0 -24 -4 -20 -10z"/>
<path d="M4441 290 c-155 -4 -195 -8 -199 -19 -4 -12 37 -13 274 -7 154 4 322
13 374 20 l95 13 -175 -1 c-96 0 -262 -3 -369 -6z"/>
<path d="M5455 280 c-11 -18 13 -36 31 -25 9 6 16 15 17 20 3 14 -40 18 -48 5z"/>
<path d="M3761 254 c-106 -7 -196 -15 -199 -19 -18 -18 484 4 553 24 44 14
-118 11 -354 -5z"/>
<path d="M3719 156 c-2 -3 -166 -12 -364 -21 -198 -9 -387 -20 -420 -24 l-60
-8 66 -2 c103 -2 771 19 797 24 13 3 22 11 19 18 -4 13 -29 21 -38 13z"/>
<path d="M4363 153 c37 -2 97 -2 135 0 37 2 6 3 -68 3 -74 0 -105 -1 -67 -3z"/>
<path d="M3804 135 c27 -21 53 -20 36 0 -7 8 -22 15 -34 15 -21 -1 -21 -1 -2
-15z"/>
<path d="M3918 133 c12 -2 32 -2 45 0 12 2 2 4 -23 4 -25 0 -35 -2 -22 -4z"/>
<path d="M3218 43 c12 -2 30 -2 40 0 9 3 -1 5 -23 4 -22 0 -30 -2 -17 -4z"/>
<path d="M3333 43 c9 -2 23 -2 30 0 6 3 -1 5 -18 5 -16 0 -22 -2 -12 -5z"/>
<path d="M2755 20 c-25 -11 298 -11 340 0 17 4 -44 8 -145 8 -96 0 -184 -3
-195 -8z"/>
<path d="M3513 23 c15 -2 37 -2 50 0 12 2 0 4 -28 4 -27 0 -38 -2 -22 -4z"/>
<path d="M2478 3 c29 -2 74 -2 100 0 26 2 2 3 -53 3 -55 0 -76 -1 -47 -3z"/>
</g>
</svg>
