<?xml version="1.0" standalone="no"?>
<!DOCTYPE svg PUBLIC "-//W3C//DTD SVG 20010904//EN"
 "http://www.w3.org/TR/2001/REC-SVG-20010904/DTD/svg10.dtd">
<svg version="1.0" xmlns="http://www.w3.org/2000/svg"
 width="815.000000pt" height="306.000000pt" viewBox="0 0 815.000000 306.000000"
 preserveAspectRatio="xMidYMid meet">

<g transform="translate(0.000000,306.000000) scale(0.100000,-0.100000)"
fill="#fff" stroke="none">
<path d="M150 2585 l0 -25 1225 0 1225 0 0 25 0 25 -1225 0 -1225 0 0 -25z"/>
<path d="M5390 2585 l0 -25 1225 0 1225 0 0 25 0 25 -1225 0 -1225 0 0 -25z"/>
<path d="M3976 2339 c-63 -15 -152 -68 -200 -119 -80 -86 -126 -209 -126 -340
0 -223 116 -383 316 -435 32 -8 58 -16 60 -18 2 -2 -28 -15 -66 -30 -63 -24
-75 -26 -117 -16 -78 17 -144 -6 -110 -40 14 -14 79 -14 127 0 34 10 46 7 156
-39 185 -78 219 -87 314 -87 97 0 152 22 190 76 26 35 63 146 54 160 -3 5 -23
-8 -43 -29 -23 -23 -58 -46 -87 -56 -70 -24 -208 -29 -369 -13 l-140 13 40 18
c58 25 121 42 197 54 247 37 399 266 360 543 -33 232 -200 371 -442 368 -41
-1 -92 -5 -114 -10z m200 -34 c53 -31 98 -99 127 -190 19 -60 22 -93 22 -230
0 -142 -3 -168 -24 -234 -42 -126 -115 -201 -198 -201 -81 0 -141 46 -192 147
-73 145 -69 461 8 611 23 45 74 100 105 112 42 17 108 11 152 -15z"/>
<path d="M6517 2336 c-114 -32 -172 -105 -172 -216 1 -109 36 -155 212 -278
141 -97 178 -136 191 -199 25 -117 -46 -191 -174 -181 -107 9 -174 90 -197
238 -7 44 -16 70 -24 70 -10 0 -13 -38 -13 -165 0 -101 4 -165 10 -165 5 0 12
11 16 25 8 32 27 32 100 -2 53 -25 70 -28 169 -28 124 0 182 19 243 78 51 49
66 84 66 157 0 115 -40 165 -237 303 -167 116 -187 140 -187 224 0 82 47 123
143 123 40 0 63 -6 88 -23 49 -33 97 -109 111 -178 7 -35 17 -59 25 -59 10 0
13 32 13 140 0 87 -4 140 -10 140 -5 0 -10 -6 -10 -13 0 -7 -6 -21 -13 -31
-13 -17 -17 -16 -78 15 -53 27 -77 33 -144 36 -47 1 -100 -3 -128 -11z"/>
<path d="M140 2321 c0 -5 9 -12 19 -16 11 -3 25 -12 32 -21 6 -8 78 -200 159
-426 l148 -412 43 3 c24 1 45 4 45 4 1 1 41 121 89 267 48 146 90 268 94 272
4 4 48 -117 99 -270 l92 -277 42 1 43 1 115 374 c64 206 126 392 139 414 12
23 35 50 52 60 16 11 29 23 29 28 0 4 -56 7 -125 7 -121 0 -162 -11 -90 -24
22 -5 42 -17 52 -33 32 -48 20 -119 -57 -362 -39 -124 -72 -227 -74 -229 -7
-6 -186 554 -186 582 0 27 24 46 59 46 12 0 21 5 21 10 0 6 -65 10 -175 10
-160 0 -209 -8 -157 -24 24 -8 35 -30 77 -155 l34 -103 -62 -184 c-34 -101
-64 -184 -68 -184 -7 0 -199 561 -199 583 0 10 12 29 26 42 l27 25 -172 0
c-99 0 -171 -4 -171 -9z"/>
<path d="M1420 2320 c0 -5 11 -10 25 -10 14 0 34 -9 45 -20 19 -19 20 -33 20
-400 0 -367 -1 -381 -20 -400 -11 -11 -31 -20 -45 -20 -14 0 -25 -4 -25 -10 0
-6 70 -10 190 -10 120 0 190 4 190 10 0 6 -11 10 -25 10 -14 0 -34 9 -45 20
-19 19 -20 33 -20 404 l0 385 22 15 c12 9 33 16 45 16 13 0 23 5 23 10 0 6
-70 10 -190 10 -120 0 -190 -4 -190 -10z"/>
<path d="M1890 2320 c0 -5 10 -10 23 -10 12 0 33 -7 45 -16 l22 -15 0 -389 0
-389 -22 -15 c-12 -9 -33 -16 -45 -16 -13 0 -23 -4 -23 -10 0 -6 122 -10 345
-10 l345 0 0 150 c0 120 -3 150 -14 150 -8 0 -16 -15 -20 -37 -8 -54 -58 -153
-92 -185 -43 -40 -95 -58 -169 -58 -111 0 -105 -25 -105 411 0 421 1 428 73
429 15 0 27 5 27 10 0 6 -72 10 -195 10 -123 0 -195 -4 -195 -10z"/>
<path d="M2660 2320 c0 -5 10 -10 23 -10 12 0 33 -7 45 -16 l22 -15 0 -389 0
-389 -22 -15 c-12 -9 -33 -16 -45 -16 -13 0 -23 -4 -23 -10 0 -14 454 -13 522
1 192 40 322 177 348 369 34 245 -83 433 -301 485 -76 18 -569 22 -569 5z
m518 -32 c58 -27 99 -80 125 -163 19 -61 22 -92 22 -235 0 -128 -4 -178 -18
-221 -22 -75 -74 -148 -118 -171 -71 -36 -190 -41 -223 -8 -8 8 -12 125 -14
388 -2 412 -1 422 53 433 46 10 125 -1 173 -23z"/>
<path d="M4620 2320 c0 -5 13 -10 28 -10 58 0 61 -14 63 -250 2 -275 12 -425
33 -475 39 -93 127 -144 262 -153 169 -10 274 49 315 178 7 21 14 157 18 336
7 332 10 348 71 361 65 12 24 23 -90 23 -121 0 -150 -9 -83 -26 21 -5 45 -21
57 -37 20 -27 21 -40 21 -310 0 -248 -2 -288 -18 -335 -36 -101 -104 -151
-207 -152 -77 0 -119 24 -150 86 -25 49 -25 50 -28 374 -3 320 -3 326 18 353
15 18 31 27 51 27 16 0 29 5 29 10 0 6 -72 10 -195 10 -123 0 -195 -4 -195
-10z"/>
<path d="M5510 2320 c0 -5 10 -10 23 -10 12 0 33 -7 45 -16 l22 -15 0 -389 0
-389 -22 -15 c-12 -9 -33 -16 -45 -16 -13 0 -23 -4 -23 -10 0 -6 122 -10 345
-10 l345 0 0 145 c0 117 -3 145 -14 145 -9 0 -16 -16 -20 -43 -8 -53 -56 -155
-84 -180 -33 -30 -92 -46 -169 -47 -114 0 -113 -1 -113 226 l0 186 55 -4 c68
-6 107 -38 131 -110 8 -26 20 -48 25 -48 5 0 9 75 9 175 0 142 -3 175 -14 175
-7 0 -16 -14 -20 -31 -8 -40 -42 -96 -70 -114 -11 -7 -42 -17 -68 -20 l-48 -7
0 186 c0 226 0 226 109 226 140 0 197 -47 231 -187 6 -29 16 -53 21 -53 5 0 9
38 9 84 0 46 3 104 6 130 l7 46 -337 0 c-217 0 -336 -4 -336 -10z"/>
<path d="M7034 2314 c3 -9 6 -76 6 -151 0 -154 10 -167 44 -58 13 39 30 84 38
100 35 65 99 105 170 105 l28 0 0 -394 c0 -451 3 -434 -83 -443 -26 -3 -47
-10 -47 -14 0 -5 104 -9 230 -9 127 0 230 4 230 9 0 4 -21 11 -47 14 -86 9
-83 -8 -83 443 l0 394 37 0 c93 0 160 -68 199 -200 33 -115 44 -103 44 53 0
75 3 142 6 151 6 14 -33 16 -386 16 -353 0 -392 -2 -386 -16z"/>
<path d="M2175 1083 c-14 -37 -98 -262 -130 -350 l-34 -93 47 0 c47 0 48 1 62
43 l15 42 89 0 89 0 15 -42 c14 -43 14 -43 62 -43 l48 0 -87 230 -86 230 -41
0 c-31 0 -44 -5 -49 -17z m80 -183 c14 -40 25 -77 25 -82 0 -4 -25 -8 -55 -8
-30 0 -55 3 -55 8 0 25 50 165 56 159 2 -2 15 -37 29 -77z"/>
<path d="M2490 870 l0 -230 90 0 c59 0 104 5 128 16 141 58 178 265 68 379
-49 52 -91 65 -203 65 l-83 0 0 -230z m173 149 c66 -18 98 -105 77 -206 -15
-67 -45 -94 -110 -101 l-50 -5 0 162 c0 182 -4 175 83 150z"/>
<path d="M2880 1089 c0 -7 34 -110 77 -231 l76 -219 50 3 49 3 79 225 c43 124
78 226 79 228 0 2 -23 2 -52 0 l-52 -3 -50 -167 c-27 -93 -52 -168 -55 -168
-3 0 -28 77 -56 170 l-50 170 -47 0 c-30 0 -48 -4 -48 -11z"/>
<path d="M3340 870 l0 -230 155 0 155 0 0 35 0 35 -110 0 -110 0 0 65 0 65 90
0 90 0 0 35 0 35 -90 0 -91 0 3 58 3 57 108 3 108 3 -3 32 -3 32 -152 3 -153
3 0 -231z"/>
<path d="M3710 870 l0 -230 45 0 44 0 3 150 3 150 90 -150 90 -149 48 -1 47 0
0 230 0 230 -45 0 -44 0 -3 -152 -3 -153 -93 153 -94 152 -44 0 -44 0 0 -230z"/>
<path d="M4140 1065 l0 -34 68 -3 67 -3 3 -192 2 -193 45 0 45 0 2 193 3 192
68 3 67 3 0 34 0 35 -185 0 -185 0 0 -35z"/>
<path d="M4572 916 c3 -206 7 -219 79 -261 47 -27 141 -27 188 0 72 42 76 55
79 261 l3 184 -45 0 -46 0 0 -165 c0 -101 -4 -174 -11 -189 -24 -52 -124 -53
-147 0 -8 15 -12 86 -12 189 l0 165 -46 0 -45 0 3 -184z"/>
<path d="M5000 871 l0 -231 45 0 44 0 3 83 3 82 40 3 40 3 42 -86 43 -85 51 0
50 0 -51 94 -51 95 26 17 c35 23 55 64 55 113 0 55 -17 87 -59 114 -31 19 -53
22 -158 26 l-123 3 0 -231z m232 132 c28 -25 23 -77 -9 -103 -21 -16 -38 -20
-77 -18 l-51 3 -3 59 c-5 87 -2 90 65 82 32 -4 65 -14 75 -23z"/>
<path d="M5420 870 l0 -230 155 0 155 0 0 35 0 35 -110 0 -110 0 0 65 0 65 95
0 95 0 0 35 0 35 -95 0 -96 0 3 58 3 57 108 3 107 3 0 34 0 35 -155 0 -155 0
0 -230z"/>
<path d="M5849 1080 c-51 -27 -75 -80 -60 -131 14 -47 55 -82 128 -108 104
-38 123 -55 108 -100 -17 -55 -137 -48 -158 10 -10 26 -16 29 -54 29 -51 0
-56 -17 -20 -71 33 -50 88 -74 168 -73 101 0 159 46 159 125 0 68 -36 103
-148 146 -83 31 -92 38 -92 74 0 34 23 49 74 49 35 0 76 -27 76 -50 0 -5 20
-10 45 -10 50 0 53 6 30 54 -34 71 -171 101 -256 56z"/>
<path d="M150 1065 l0 -25 765 0 765 0 0 25 0 25 -765 0 -765 0 0 -25z"/>
<path d="M6310 1065 l0 -25 765 0 765 0 0 25 0 25 -765 0 -765 0 0 -25z"/>
<path d="M580 950 l0 -30 550 0 550 0 0 30 0 30 -550 0 -550 0 0 -30z"/>
<path d="M6310 950 l0 -30 550 0 550 0 0 30 0 30 -550 0 -550 0 0 -30z"/>
</g>
</svg>
